<svg width="512" height="512" viewBox="0 0 512 512" fill="none" xmlns="http://www.w3.org/2000/svg">
<rect width="512" height="512" fill="url(#paint0_angular_1_12)"/>
<path d="M319.333 224.333C319.333 241.13 312.661 257.239 300.783 269.117C288.906 280.994 272.797 287.667 256 287.667C239.203 287.667 223.094 280.994 211.217 269.117C199.339 257.239 192.667 241.13 192.667 224.333" stroke="white" stroke-width="30" stroke-linecap="round" stroke-linejoin="round"/>
<path d="M113.5 161H398.5" stroke="white" stroke-width="30" stroke-linecap="round" stroke-linejoin="round"/>
<path d="M161 97.6667L113.5 161V382.667C113.5 391.065 116.836 399.12 122.775 405.058C128.714 410.997 136.768 414.333 145.167 414.333H366.833C375.232 414.333 383.286 410.997 389.225 405.058C395.164 399.12 398.5 391.065 398.5 382.667V161L351 97.6667H161Z" stroke="white" stroke-width="30" stroke-linecap="round" stroke-linejoin="round"/>
<defs>
<radialGradient id="paint0_angular_1_12" cx="0" cy="0" r="1" gradientUnits="userSpaceOnUse" gradientTransform="translate(256 256) rotate(95.8325) scale(186.968)">
<stop stop-color="#FF2F2F"/>
<stop offset="0.33" stop-color="#3872EF"/>
<stop offset="0.66" stop-color="#90DD1C"/>
</radialGradient>
</defs>
</svg>
